<svg xmlns="http://www.w3.org/2000/svg" width="1182" height="887" viewBox="0 0 1182 887">
<g>
<path d="M 591.50 382.50 L 590.98 484.00 L 568.02 484.00 L 567.50 382.50 L 533.00 381.95 L 533.00 363.00 L 626.00 363.00 L 626.00 381.95 Z" fill="rgb(0,0,0)"/>
<path d="M 0.00 0.00 L 1182.00 0.00 L 1182.00 887.00 L 0.00 887.00 ZM 565.14 487.28 C567.00,488.81 567.56,488.87 569.34,487.69 C572.20,485.79 572.56,484.00 570.09,484.00 L 588.49 484.00 C586.74,484.00 586.00,484.55 586.00,485.83 C586.00,486.84 586.30,487.97 586.67,488.33 C587.91,489.58 592.85,489.01 594.43,487.43 C595.81,486.04 596.00,480.03 596.00,436.37 L 596.00 386.89 L 608.75 387.29 C615.76,387.52 622.75,388.05 624.29,388.47 C628.40,389.61 631.20,386.86 629.85,383.00 C628.78,379.92 626.00,378.12 626.00,380.51 L 626.00 364.97 C626.00,367.92 628.66,366.42 629.94,362.73 C630.59,360.88 630.66,359.26 630.12,358.72 C629.12,357.72 531.39,357.53 528.80,358.53 C527.64,358.97 527.33,360.01 527.68,362.32 C527.95,364.07 528.58,365.93 529.08,366.45 C530.35,367.76 530.24,376.69 528.92,379.15 C526.67,383.35 526.85,385.86 529.53,387.61 C531.71,389.04 532.65,389.11 535.80,388.09 C538.07,387.35 543.93,387.01 551.00,387.19 L 562.50 387.50 L 562.74 436.50 C562.98,485.29 562.99,485.51 565.14,487.28 Z" fill="rgb(254,255,254)"/>
<path d="M 565.14 487.28 C562.99,485.51 562.98,485.29 562.74,436.50 L 562.50 387.50 L 551.00 387.19 C543.93,387.01 538.07,387.35 535.80,388.09 C532.65,389.11 531.71,389.04 529.53,387.61 C526.85,385.86 526.67,383.35 528.92,379.15 C530.24,376.69 530.35,367.76 529.08,366.45 C528.58,365.93 527.95,364.07 527.68,362.32 C527.33,360.01 527.64,358.97 528.80,358.53 C531.39,357.53 629.12,357.72 630.12,358.72 C630.66,359.26 630.59,360.88 629.94,362.73 C628.66,366.42 626.00,367.92 626.00,364.97 C626.00,363.04 625.09,363.00 579.50,363.00 L 533.00 363.00 L 533.00 372.48 L 533.00 381.95 L 550.25 382.23 L 567.50 382.50 L 567.76 433.25 C568.02,483.85 568.02,484.00 570.09,484.00 C572.56,484.00 572.20,485.79 569.34,487.69 C567.56,488.87 567.00,488.81 565.14,487.28 ZM 586.67 488.33 C586.30,487.97 586.00,486.84 586.00,485.83 C586.00,484.55 586.74,484.00 588.49,484.00 L 590.98 484.00 L 591.24 433.25 L 591.50 382.50 L 608.75 382.23 C623.00,382.00 626.00,381.70 626.00,380.51 C626.00,378.12 628.78,379.92 629.85,383.00 C631.20,386.86 628.40,389.61 624.29,388.47 C622.75,388.05 615.76,387.52 608.75,387.29 L 596.00 386.89 L 596.00 436.37 C596.00,480.03 595.81,486.04 594.43,487.43 C592.85,489.01 587.91,489.58 586.67,488.33 Z" fill="rgb(254,254,254)"/>
</g>
</svg>